# xmcd
#
# Track frame offsets:
#	150
#	23238
#	38450
#	61675
#	87438
#	114563
#	144693
#	172013
#	208363
#	233480
#	269180
#
# Disc length: 3861 seconds
#
# Revision: 1
# Processed by: cddbd v1.4PL0 Copyright (c) Steve Scherf et al.
# Submitted via: audiograbber 1.81.03
#
DISCID=9c0f130b
DTITLE=Eric Clapton - Through the Years Vol 4
DYEAR=1900
DGENRE=Rock
TTITLE0=Layla Pt 1
TTITLE1=Layla Pt 2
TTITLE2=Money For Nothing
TTITLE3=Sunshine of your Love
TTITLE4=Pretending
TTITLE5=Running on Faith
TTITLE6=Bad Love
TTITLE7=Lay Down Sally
TTITLE8=Hideaway
TTITLE9=All Your Love
TTITLE10=Tears in Heaven
EXTD=
EXTT0=
EXTT1=
EXTT2=
EXTT3=
EXTT4=
EXTT5=
EXTT6=
EXTT7=
EXTT8=
EXTT9=
EXTT10=
PLAYORDER=
